<svg width="24" height="25" viewBox="0 0 24 25" fill="none" xmlns="http://www.w3.org/2000/svg">
<path fill-rule="evenodd" clip-rule="evenodd" d="M3.28049 1.19875C2.23415 1.41338 1.42927 2.1646 1.10732 3.21094L1 3.5329V12.1719V20.8109L1.10732 21.1329C1.26829 21.6158 1.48293 21.9646 1.83171 22.3402C2.20732 22.7158 2.5561 22.9305 3.03902 23.0646L3.36098 23.1719H12H20.639L20.961 23.0646C21.4439 22.9036 21.7927 22.689 22.1683 22.3402C22.5439 21.9646 22.7585 21.6158 22.8927 21.1329L23 20.8109V12.1451V3.5329L22.8927 3.21094C22.7317 2.72802 22.5171 2.37924 22.1683 2.00363C21.8195 1.65485 21.4439 1.44021 20.9878 1.27924L20.6927 1.17192H12.1341C5.07805 1.14509 3.49512 1.14509 3.28049 1.19875ZM12.6171 6.34997C13.5561 6.59143 14.361 7.36948 14.6293 8.28168C14.7366 8.65729 14.7634 9.24753 14.6829 9.59631C14.3878 10.9378 13.2878 11.85 11.9195 11.85C11.1146 11.85 10.5244 11.6085 9.96098 11.0451C9.37073 10.4548 9.12927 9.89143 9.10244 9.08655C9.10244 8.25485 9.3439 7.6646 9.90732 7.07436C10.6854 6.3768 11.6512 6.08168 12.6171 6.34997ZM15.0317 12.628C16.0244 13.1646 16.9366 14.1036 17.4463 15.1768C17.822 15.9548 18.0098 16.6792 18.0098 17.5109C18.0098 18.0475 18.0098 18.1012 17.9024 18.3158C17.7683 18.6109 17.4463 18.9329 17.1244 19.0939L16.8829 19.2012H12.0537H7.19756L6.9561 19.0939C6.63415 18.9597 6.33902 18.6378 6.20488 18.3427C6.09756 18.128 6.09756 18.0475 6.09756 17.5109C6.09756 16.867 6.15122 16.5183 6.36585 15.9012C6.82195 14.4524 7.89512 13.2183 9.26341 12.5475L9.66585 12.3597L10.1488 12.6012C10.8463 12.95 11.222 13.0305 12 13.0305C12.5098 13.0305 12.6976 13.0036 12.9659 12.9231C13.3146 12.8158 13.9049 12.5744 14.1732 12.3866L14.3341 12.2792L14.522 12.3597C14.6024 12.4134 14.8439 12.5475 15.0317 12.628Z" fill="#D9D9D9"/>
</svg>
