<svg width="24" height="25" viewBox="0 0 24 25" fill="none" xmlns="http://www.w3.org/2000/svg">
<path d="M3.75 20.4043C3.75 20.9566 4.19772 21.4043 4.75 21.4043H9.625C10.1773 21.4043 10.625 20.9566 10.625 20.4043V16.9043C10.625 16.352 11.0727 15.9043 11.625 15.9043H12.375C12.9273 15.9043 13.375 16.352 13.375 16.9043V20.4043C13.375 20.9566 13.8227 21.4043 14.375 21.4043H19.25C19.8023 21.4043 20.25 20.9566 20.25 20.4043V13.9598C20.25 13.5149 20.6106 13.1543 21.0555 13.1543C21.773 13.1543 22.1324 12.2867 21.625 11.7793L12.7071 2.8614C12.3166 2.47088 11.6834 2.47088 11.2929 2.8614L2.375 11.7793C1.86759 12.2867 2.22696 13.1543 2.94454 13.1543C3.38938 13.1543 3.75 13.5149 3.75 13.9598V20.4043Z" fill="#E8E8E8"/>
</svg>
