<svg width="40" height="41" viewBox="0 0 40 41" fill="none" xmlns="http://www.w3.org/2000/svg">
<g clip-path="url(#clip0_9095_906)">
<mask id="path-1-inside-1_9095_906" fill="white">
<path d="M0 20.1543C0 9.1086 8.95431 0.154297 20 0.154297C31.0457 0.154297 40 9.1086 40 20.1543C40 31.2 31.0457 40.1543 20 40.1543C8.95431 40.1543 0 31.2 0 20.1543Z"/>
</mask>
<path d="M20 40.1543V39.1543C9.50659 39.1543 1 30.6477 1 20.1543H0H-1C-1 31.7523 8.40202 41.1543 20 41.1543V40.1543ZM40 20.1543H39C39 30.6477 30.4934 39.1543 20 39.1543V40.1543V41.1543C31.598 41.1543 41 31.7523 41 20.1543H40ZM20 0.154297V1.1543C30.4934 1.1543 39 9.66089 39 20.1543H40H41C41 8.55632 31.598 -0.845703 20 -0.845703V0.154297ZM20 0.154297V-0.845703C8.40202 -0.845703 -1 8.55632 -1 20.1543H0H1C1 9.66089 9.50659 1.1543 20 1.1543V0.154297Z" fill="#D9D9D9" mask="url(#path-1-inside-1_9095_906)"/>
<path d="M23.8125 13.1543C26.194 13.1543 28.1246 15.0854 28.125 17.4668V21.9668C28.125 24.3485 26.1942 26.2793 23.8125 26.2793H16.3125C13.9308 26.2793 12 24.3485 12 21.9668V17.4668C12.0004 15.0854 13.931 13.1543 16.3125 13.1543H23.8125ZM25.0107 17.125C24.8243 16.8766 24.4711 16.8264 24.2227 17.0127L20.623 19.7129C20.2898 19.9629 19.8314 19.9628 19.498 19.7129L15.8984 17.0127L15.8008 16.9541C15.5643 16.8421 15.2735 16.9077 15.1104 17.125C14.9472 17.3426 14.9658 17.6402 15.1396 17.8359L15.2227 17.9131L18.8232 20.6133C19.5564 21.1629 20.5647 21.1629 21.2979 20.6133L24.8984 17.9131C25.1467 17.7267 25.197 17.3734 25.0107 17.125Z" fill="#D9D9D9"/>
</g>
<defs>
<clipPath id="clip0_9095_906">
<rect width="40" height="40" fill="white" transform="translate(0 0.154297)"/>
</clipPath>
</defs>
</svg>
