<svg width="40" height="41" viewBox="0 0 40 41" fill="none" xmlns="http://www.w3.org/2000/svg">
<g clip-path="url(#clip0_9095_913)">
<mask id="path-1-inside-1_9095_913" fill="white">
<path d="M0 20.1543C0 9.1086 8.95431 0.154297 20 0.154297C31.0457 0.154297 40 9.1086 40 20.1543C40 31.2 31.0457 40.1543 20 40.1543C8.95431 40.1543 0 31.2 0 20.1543Z"/>
</mask>
<path d="M20 40.1543V39.1543C9.50659 39.1543 1 30.6477 1 20.1543H0H-1C-1 31.7523 8.40202 41.1543 20 41.1543V40.1543ZM40 20.1543H39C39 30.6477 30.4934 39.1543 20 39.1543V40.1543V41.1543C31.598 41.1543 41 31.7523 41 20.1543H40ZM20 0.154297V1.1543C30.4934 1.1543 39 9.66089 39 20.1543H40H41C41 8.55632 31.598 -0.845703 20 -0.845703V0.154297ZM20 0.154297V-0.845703C8.40202 -0.845703 -1 8.55632 -1 20.1543H0H1C1 9.66089 9.50659 1.1543 20 1.1543V0.154297Z" fill="#D9D9D9" mask="url(#path-1-inside-1_9095_913)"/>
<path d="M25.0465 26.6354C23.5808 28.1011 19.8271 26.7239 16.6625 23.5592C13.4978 20.3946 12.1205 16.6409 13.5863 15.1751L14.5514 14.2101C15.2176 13.5438 16.3154 13.5614 17.0034 14.2494L18.4982 15.7442C19.1862 16.4322 19.2038 17.53 18.5375 18.1962L18.3302 18.4035C17.9705 18.7632 17.9353 19.3435 18.2696 19.7486C18.592 20.1393 18.9395 20.5284 19.3164 20.9053C19.6933 21.2821 20.0824 21.6297 20.4731 21.9521C20.8781 22.2863 21.4584 22.2512 21.8181 21.8914L22.0254 21.6842C22.6917 21.0179 23.7895 21.0355 24.4775 21.7235L25.9723 23.2183C26.6602 23.9063 26.6779 25.0041 26.0116 25.6703L25.0465 26.6354Z" fill="#D9D9D9" stroke="#D9D9D9" stroke-width="1.125"/>
<path d="M23.9721 18.2231C23.7891 17.7767 23.5164 17.3585 23.1539 16.996C22.8119 16.654 22.4203 16.3919 22.0022 16.2097" stroke="#D9D9D9" stroke-width="1.125" stroke-linecap="round"/>
<path d="M22.0009 13.6544C23.0018 14.017 23.941 14.5996 24.7435 15.4021C25.5661 16.2247 26.1576 17.191 26.5181 18.2202" stroke="#D9D9D9" stroke-width="1.125" stroke-linecap="round"/>
</g>
<defs>
<clipPath id="clip0_9095_913">
<rect width="40" height="40" fill="white" transform="translate(0 0.154297)"/>
</clipPath>
</defs>
</svg>
