<svg width="24" height="25" viewBox="0 0 24 25" fill="none" xmlns="http://www.w3.org/2000/svg">
<path d="M9.1949 3.16905L3.99999 3.16978C3.44771 3.16986 3.00006 3.61763 3.00014 4.16991L3.00088 9.36482C3.00095 9.9171 3.44873 10.3648 4.00101 10.3647L9.19592 10.3639C9.7482 10.3639 10.1958 9.91608 10.1958 9.36381L10.195 4.16889C10.195 3.61662 9.74718 3.16897 9.1949 3.16905Z" fill="#E8E8E8"/>
<path d="M19.8629 3.15517L14.668 3.15444C14.1157 3.15436 13.6679 3.60201 13.6678 4.15429L13.6671 9.3492C13.667 9.90148 14.1147 10.3493 14.6669 10.3493L19.8619 10.3501C20.4141 10.3501 20.8619 9.90249 20.862 9.35022L20.8627 4.1553C20.8628 3.60303 20.4151 3.15525 19.8629 3.15517Z" fill="#E8E8E8"/>
<path d="M9.32771 13.6387H4.1328C3.58052 13.6387 3.13281 14.0864 3.13281 14.6387V19.8336C3.13281 20.3859 3.58052 20.8336 4.1328 20.8336H9.32771C9.87999 20.8336 10.3277 20.3859 10.3277 19.8336V14.6387C10.3277 14.0864 9.87999 13.6387 9.32771 13.6387Z" fill="#E8E8E8"/>
<path d="M19.7887 13.6152H14.5937C14.0415 13.6152 13.5938 14.0629 13.5938 14.6152V19.8101C13.5938 20.3624 14.0415 20.8101 14.5937 20.8101H19.7887C20.3409 20.8101 20.7886 20.3624 20.7886 19.8101V14.6152C20.7886 14.0629 20.3409 13.6152 19.7887 13.6152Z" fill="#E8E8E8"/>
</svg>
