<svg width="40" height="41" viewBox="0 0 40 41" fill="none" xmlns="http://www.w3.org/2000/svg">
<g clip-path="url(#clip0_9095_903)">
<mask id="path-1-inside-1_9095_903" fill="white">
<path d="M0 20.1543C0 9.1086 8.95431 0.154297 20 0.154297C31.0457 0.154297 40 9.1086 40 20.1543C40 31.2 31.0457 40.1543 20 40.1543C8.95431 40.1543 0 31.2 0 20.1543Z"/>
</mask>
<path d="M20 40.1543V39.1543C9.50659 39.1543 1 30.6477 1 20.1543H0H-1C-1 31.7523 8.40202 41.1543 20 41.1543V40.1543ZM40 20.1543H39C39 30.6477 30.4934 39.1543 20 39.1543V40.1543V41.1543C31.598 41.1543 41 31.7523 41 20.1543H40ZM20 0.154297V1.1543C30.4934 1.1543 39 9.66089 39 20.1543H40H41C41 8.55632 31.598 -0.845703 20 -0.845703V0.154297ZM20 0.154297V-0.845703C8.40202 -0.845703 -1 8.55632 -1 20.1543H0H1C1 9.66089 9.50659 1.1543 20 1.1543V0.154297Z" fill="#D9D9D9" mask="url(#path-1-inside-1_9095_903)"/>
<path fill-rule="evenodd" clip-rule="evenodd" d="M25.7129 13.2437C25.9009 13.1645 26.1068 13.1372 26.309 13.1646C26.5113 13.192 26.7024 13.2731 26.8627 13.3995C27.0229 13.5258 27.1463 13.6928 27.2202 13.8831C27.2939 14.0734 27.3154 14.2799 27.2823 14.4813L25.5561 24.9519C25.3886 25.9619 24.2805 26.5411 23.3542 26.038C22.5794 25.6171 21.4286 24.9686 20.3935 24.292C19.8759 23.9533 18.2905 22.8687 18.4853 22.097C18.6528 21.4371 21.3167 18.9574 22.8389 17.4831C23.4364 16.9039 23.1639 16.5698 22.4584 17.1025C20.7063 18.4253 17.8932 20.437 16.9631 21.0033C16.1426 21.5025 15.7149 21.5878 15.2034 21.5025C14.2703 21.3473 13.4049 21.1068 12.6986 20.8137C11.7442 20.4179 11.7906 19.1058 12.6979 18.7237L25.7129 13.2437Z" fill="#D9D9D9"/>
</g>
<defs>
<clipPath id="clip0_9095_903">
<rect width="40" height="40" fill="white" transform="translate(0 0.154297)"/>
</clipPath>
</defs>
</svg>
