<svg width="40" height="41" viewBox="0 0 40 41" fill="none" xmlns="http://www.w3.org/2000/svg">
<g clip-path="url(#clip0_9095_900)">
<mask id="path-1-inside-1_9095_900" fill="white">
<path d="M0 20.1543C0 9.1086 8.95431 0.154297 20 0.154297C31.0457 0.154297 40 9.1086 40 20.1543C40 31.2 31.0457 40.1543 20 40.1543C8.95431 40.1543 0 31.2 0 20.1543Z"/>
</mask>
<path d="M20 40.1543V39.1543C9.50659 39.1543 1 30.6477 1 20.1543H0H-1C-1 31.7523 8.40202 41.1543 20 41.1543V40.1543ZM40 20.1543H39C39 30.6477 30.4934 39.1543 20 39.1543V40.1543V41.1543C31.598 41.1543 41 31.7523 41 20.1543H40ZM20 0.154297V1.1543C30.4934 1.1543 39 9.66089 39 20.1543H40H41C41 8.55632 31.598 -0.845703 20 -0.845703V0.154297ZM20 0.154297V-0.845703C8.40202 -0.845703 -1 8.55632 -1 20.1543H0H1C1 9.66089 9.50659 1.1543 20 1.1543V0.154297Z" fill="#D9D9D9" mask="url(#path-1-inside-1_9095_900)"/>
<path d="M20 12.1543C24.4184 12.1543 28 15.7359 28 20.1543C28 24.5727 24.4184 28.1543 20 28.1543C18.5862 28.1567 17.1973 27.7826 15.976 27.0703L12.0032 28.1543L13.0848 24.1799C12.372 22.9582 11.9975 21.5687 12 20.1543C12 15.7359 15.5816 12.1543 20 12.1543ZM17.2736 16.3943L17.1136 16.4007C17.0102 16.4078 16.9091 16.435 16.816 16.4807C16.7293 16.5299 16.6501 16.5913 16.5808 16.6631C16.4848 16.7535 16.4304 16.8319 16.372 16.9079C16.0761 17.2926 15.9168 17.7649 15.9192 18.2503C15.9208 18.6423 16.0232 19.0239 16.1832 19.3807C16.5104 20.1023 17.0488 20.8663 17.7592 21.5743C17.9304 21.7447 18.0984 21.9159 18.2792 22.0751C19.162 22.8523 20.2138 23.4127 21.3512 23.7119L21.8056 23.7815C21.9536 23.7895 22.1016 23.7783 22.2504 23.7711C22.4834 23.7588 22.7108 23.6957 22.9168 23.5863C23.0215 23.5322 23.1237 23.4734 23.2232 23.4103C23.2232 23.4103 23.2571 23.3874 23.3232 23.3383C23.4312 23.2583 23.4976 23.2015 23.5872 23.1079C23.6544 23.0386 23.7104 22.958 23.7552 22.8663C23.8176 22.7359 23.88 22.4871 23.9056 22.2799C23.9248 22.1215 23.9192 22.0351 23.9168 21.9815C23.9136 21.8959 23.8424 21.8071 23.7648 21.7695L23.2992 21.5607C23.2992 21.5607 22.6032 21.2575 22.1776 21.0639C22.1331 21.0445 22.0853 21.0334 22.0368 21.0311C21.982 21.0254 21.9268 21.0315 21.8746 21.049C21.8224 21.0666 21.7746 21.0951 21.7344 21.1327C21.7304 21.1311 21.6768 21.1767 21.0984 21.8775C21.0652 21.9221 21.0195 21.9558 20.967 21.9743C20.9146 21.9929 20.8579 21.9954 20.804 21.9815C20.7519 21.9676 20.7008 21.9499 20.6512 21.9287C20.552 21.8871 20.5176 21.8711 20.4496 21.8423C19.9903 21.6422 19.5652 21.3715 19.1896 21.0399C19.0888 20.9519 18.9952 20.8559 18.8992 20.7631C18.5845 20.4617 18.3102 20.1207 18.0832 19.7487L18.036 19.6727C18.0026 19.6213 17.9752 19.5663 17.9544 19.5087C17.924 19.3911 18.0032 19.2967 18.0032 19.2967C18.0032 19.2967 18.1976 19.0839 18.288 18.9687C18.376 18.8567 18.4504 18.7479 18.4984 18.6703C18.5928 18.5183 18.6224 18.3623 18.5728 18.2415C18.3488 17.6943 18.1173 17.15 17.8784 16.6087C17.8312 16.5015 17.6912 16.4247 17.564 16.4095C17.5208 16.4042 17.4776 16.3999 17.4344 16.3967C17.327 16.3905 17.2193 16.3916 17.112 16.3999L17.2736 16.3943Z" fill="#D9D9D9"/>
</g>
<defs>
<clipPath id="clip0_9095_900">
<rect width="40" height="40" fill="white" transform="translate(0 0.154297)"/>
</clipPath>
</defs>
</svg>
