<svg width="138" height="40" viewBox="0 0 138 40" fill="none" xmlns="http://www.w3.org/2000/svg">
<path d="M94.5255 26.1345C95.1531 25.9957 96.0595 23.4616 96.1292 23.4616C96.5127 24.017 96.4081 24.7807 97.0357 25.232C97.454 25.5444 98.1164 25.4402 98.6394 25.0237C98.9183 24.8154 100.208 23.4616 100.731 22.4202C100.871 22.1078 100.801 22.1078 100.731 22.0383C100.522 21.83 100.452 21.9689 100.417 22.0383C99.5807 23.5657 98.6393 24.26 98.3953 24.503C98.1861 24.4683 97.9421 24.8501 97.6632 24.5724C97.3146 24.26 97.3146 23.2533 97.2797 23.0103C97.3146 22.6285 97.6632 21.2399 97.4889 20.8928C97.2797 20.4762 96.4778 20.1985 96.1292 20.4068C95.676 20.6845 95.1531 23.774 94.4907 23.9823C94.4558 23.1144 94.6301 22.2466 94.8044 21.3788C94.8741 20.7192 94.2466 20.4415 93.8283 20.0944C93.5145 19.8167 92.7126 19.1571 92.2246 19.6084C91.7365 20.1638 91.597 21.1705 91.597 21.9342C91.597 23.1144 92.5035 25.8568 93.8283 26.0998C94.0026 26.1345 94.2815 26.2039 94.5255 26.1345ZM82.2886 27.523C82.5327 27.523 82.5675 27.4189 82.5675 27.2106C82.5675 26.7593 83.718 23.2186 84.1015 23.2186C84.1712 23.2186 84.2061 24.5724 84.3107 24.9195C84.5198 25.5791 85.496 26.6899 86.1933 26.5511C86.9951 26.3081 87.7272 24.6071 87.9713 23.8781L88.1107 23.6351C88.285 23.531 88.4594 23.531 88.4942 23.7393C88.7383 24.4335 88.9126 24.9542 89.4704 25.4749C89.8539 25.8221 90.342 25.7874 90.83 25.6138C91.3181 25.4055 91.3879 25.1625 91.7365 24.7807C91.9457 24.503 92.0154 24.2947 92.2246 23.9476C92.5732 23.3227 92.6778 22.9409 93.0264 22.2466C93.0613 22.1425 93.131 21.9689 92.9915 21.8648C92.887 21.83 92.8521 21.83 92.7824 21.8995C92.7126 21.9342 92.6081 22.0383 92.5732 22.1078C92.2594 22.6632 92.0851 23.0103 91.8411 23.5657C91.597 24.1211 91.2833 24.4683 90.7952 24.8154C90.5163 24.989 90.1328 25.0237 90.0631 24.746C89.6796 24.0517 89.8539 23.6004 89.7493 22.9409C89.6796 22.559 89.4355 22.316 89.0172 22.316C88.4942 22.2466 87.5878 22.559 87.3437 23.045C87.3089 23.045 87.274 23.1839 87.1346 23.0797C87.1694 22.8367 87.1694 22.5243 87.274 22.2466C87.5529 21.1705 86.5419 20.7886 85.7052 20.5804C84.8685 20.3721 83.8574 21.4482 83.474 22.1078C83.4042 21.4829 83.6134 20.3721 82.9859 19.9902C82.4978 19.782 81.9748 19.4001 81.4519 19.6084C80.6849 20.7192 80.9638 20.9275 80.5106 21.9342C80.4409 22.1772 80.3363 22.4896 80.3014 22.7673C80.2317 23.3574 80.0574 23.9476 80.0922 24.5724C80.162 26.0651 80.5106 26.6552 81.8354 27.3148C81.9051 27.4883 82.1143 27.523 82.2886 27.523ZM76.1876 26.7941C75.6298 26.7246 75.5949 25.5791 75.5601 25.1625C75.5601 24.7113 75.5252 23.3921 75.8738 23.0797L76.083 23.1492C76.4665 23.4269 76.8151 23.3921 77.2683 23.531C77.617 23.6351 77.6518 23.7046 77.617 24.3641C77.5821 24.8154 76.7803 26.7941 76.1876 26.7941ZM77.094 22.6979C76.7803 22.6285 76.3968 22.3855 76.2225 22.1425C76.1527 21.9689 76.0481 21.6565 76.4316 21.2052C76.6757 20.9622 76.9894 21.1011 77.2683 21.1705C77.4427 21.4482 77.617 21.7259 77.5821 22.073C77.5472 22.6285 77.6518 22.8367 77.094 22.6979ZM71.4462 28.3909C71.7949 28.4256 72.0389 28.2867 72.004 27.9049C71.9343 27.1759 72.004 27.3148 72.0389 26.5858C72.0389 25.9609 72.4224 24.26 72.8756 23.8434C72.9802 23.8781 73.0151 23.9823 73.0151 24.0517C73.3288 25.1972 73.5729 26.2039 74.549 26.9676C75.072 27.3842 75.6995 27.5578 76.3968 27.6272C77.3381 27.6966 78.5583 25.2667 78.5583 24.5377C78.5583 24.0517 78.6977 23.4616 79.1161 23.2533C79.5344 23.0103 79.8831 22.9062 80.3014 22.6632C80.5106 22.5243 81.3125 22.1078 81.2776 21.9342C81.2427 21.7259 81.3473 21.3788 81.1033 21.4482C80.9987 21.4829 80.2317 22.1078 80.1271 22.1772C79.9179 22.3507 79.4996 22.6632 79.1161 22.6632C78.5931 22.6632 78.6629 22.559 78.5234 22.1078C78.4885 21.9689 78.4886 21.8995 78.4886 21.7953C78.4886 21.5176 78.4188 21.3093 78.3142 21.0664C78.1051 20.6845 77.8261 20.3374 77.4775 20.025C77.4078 19.9555 77.3032 19.8861 77.1986 19.9208C76.8848 19.9902 76.85 19.782 76.8151 19.6084C76.6757 19.2265 76.5014 19.053 76.1527 19.0183C75.5252 18.9488 73.4334 19.6084 73.5031 20.3721C73.6077 20.7886 73.1545 22.1425 72.8407 22.4202C72.6664 22.559 72.527 22.8367 72.3178 22.7326C72.1086 22.6632 72.1435 22.3507 72.1086 22.1425C72.0389 21.5176 72.1086 18.1157 72.1783 17.3867C72.2132 17.109 72.5967 16.5883 72.527 16.0329C72.527 15.6858 72.4921 15.3386 72.527 14.9915C72.5967 14.5402 72.3527 14.1931 71.8994 14.1237C70.9233 13.9501 70.2609 13.9501 69.3893 14.6097C69.1453 14.7832 69.1453 14.8179 69.3544 15.0609C69.4939 15.2345 69.459 20.4068 69.459 20.6845C69.459 21.4135 69.4242 22.1078 69.459 22.802C69.5288 23.7046 69.6333 26.4816 69.7728 27.1412C69.8425 27.4536 69.8774 27.6966 70.1563 27.9743C70.4701 28.2173 70.9233 28.3562 71.4462 28.3909ZM64.9617 25.232C64.6828 25.232 64.5782 25.0237 64.7525 24.8501C65.1012 24.3641 65.5195 23.9476 66.1471 23.8087H66.3214C66.0076 24.3641 65.7636 24.8501 65.2406 25.1625C65.136 25.1972 65.1012 25.232 64.9617 25.232ZM61.2662 27.523C61.5103 27.8702 61.8589 27.8355 62.1029 27.523C63.114 26.2386 63.1488 26.4816 63.2883 24.6765C63.2883 24.6418 63.2883 24.6418 63.3231 24.6418C63.6718 23.6351 64.7525 22.4202 65.9379 22.7326C66.2516 22.802 66.3214 22.9756 66.2865 23.2186C66.2516 23.2533 66.1819 23.288 66.1471 23.3227C65.2057 23.6351 64.2645 24.0864 64.0553 25.0584C63.8461 25.6485 64.5085 26.3081 65.5195 26.4122C66.7397 26.5164 67.7507 25.7874 68.204 24.7113C68.3434 24.3294 68.2737 23.6699 68.0297 23.2186C68.3434 22.9756 68.7966 22.6285 69.1453 22.4549C69.2847 22.3507 69.7031 22.1078 69.7379 22.073C69.8077 22.0383 70.1214 21.8995 70.1563 21.83L70.3655 21.6565C70.5398 21.5176 70.5398 21.3441 70.4003 21.2052C70.1912 20.9622 70.0866 21.1011 69.7031 21.4135C69.3544 21.7259 68.971 22.0383 68.6223 22.2466L67.8902 22.6285C67.8902 22.6285 67.6462 22.802 67.5416 22.6632C67.2627 22.4549 66.9838 22.2813 66.6351 22.1772C65.903 21.9689 65.1709 22.073 64.5085 22.4202C64.2993 22.559 64.0553 22.6979 63.8112 22.8367C63.7066 22.9409 63.6718 22.9409 63.6369 22.802C63.7066 22.4549 63.8461 21.6565 63.8461 21.3441C63.8461 20.7886 64.0901 19.9555 63.6021 19.539C63.2883 19.2265 63.0094 19.2613 62.591 19.2613C62.1727 19.2613 61.0222 19.1571 60.813 19.7125C60.7781 19.8167 60.813 19.9208 60.8479 20.025C60.8479 20.0944 60.6736 24.0517 60.6736 24.26C60.569 24.8848 60.813 26.9676 61.2662 27.523ZM49.622 29.5364C50.1101 28.9463 50.6679 26.5858 50.8073 25.7179C51.1211 23.4616 51.2954 21.8648 53.6661 20.7886C54.2936 20.5109 54.9212 20.3027 55.6184 20.5109C56.2808 20.6845 57.0478 21.4482 56.3854 22.6632C56.0368 23.3227 53.4918 25.5444 52.6551 25.9609C52.4808 26.0304 52.2716 26.0651 52.3762 26.2039C52.7248 26.7593 53.6661 27.2106 54.4331 27.28C56.3854 27.5925 58.2332 26.2734 59.0001 24.5377C59.7323 22.802 58.4423 20.4068 56.734 19.9555C55.479 19.6431 54.189 19.8167 53.0037 20.4415C52.5854 20.6498 52.167 20.9275 51.7486 21.1705C51.5395 21.3093 51.5395 21.3093 51.4 21.0316C51.4349 20.9969 51.6441 17.1437 51.6092 17.0396C51.5743 16.8313 51.6092 16.7966 51.8184 16.8313C52.5505 17.0049 53.4569 17.3867 54.2588 17.2132C55.5487 17.0396 59.279 17.0396 59.279 15.0262L59.3139 14.6791C59.3139 14.5402 59.3836 14.4014 59.5231 14.2972C59.8369 14.1237 59.8369 14.089 59.6974 13.7765C59.4534 12.9781 58.2332 12.2144 57.3616 12.2839C56.6992 12.3186 56.2111 12.7699 56.1762 13.4988C56.246 13.4988 56.2808 13.4641 56.3157 13.4641C56.8735 12.9087 59.0699 13.9154 58.7212 15.0262C58.5469 15.6858 57.7451 15.5816 57.1524 15.6858H57.1175C53.8404 15.2692 51.8184 11.7285 48.4715 11.7979C47.8091 11.7979 46.3797 12.8393 46.0311 13.3253C45.6128 13.9501 45.3687 14.6097 45.6128 15.3734C45.7173 15.7205 45.9265 16.0329 46.1706 16.2759C46.31 16.4148 46.4146 16.5536 46.3797 16.7272C46.4843 16.866 46.5889 16.7619 46.6935 16.7272C47.0421 16.5189 47.1467 16.1718 47.2862 15.8593C47.5302 15.3039 47.4605 15.0609 46.9027 14.7832L46.7981 14.7485C46.4843 14.575 46.5192 14.2278 46.833 14.089C47.1816 13.9154 48.2623 14.3667 48.5064 14.575C48.5064 14.575 48.4715 14.9915 48.4367 15.1998C48.4018 15.4428 48.1578 15.4428 48.1229 15.8941C47.8788 18.4976 47.6348 22.1425 47.8091 24.746C47.844 25.475 48.088 29.0157 48.5761 29.6058C49.099 30.0918 49.1688 30.0918 49.622 29.5364Z" fill="#21272A"/>
<path d="M128.622 17.3865C128.622 16.3104 128.622 13.2903 129.284 12.7696C130.086 12.3184 130.121 13.325 130.086 13.8457C129.911 15.3037 129.493 15.8591 129.005 17.1782C129.005 17.3865 128.622 17.9766 128.622 17.3865ZM127.68 27.7311C127.924 27.7658 128.517 27.8352 128.517 27.4534C128.517 25.7872 127.715 23.0448 129.11 20.9273C129.354 20.5454 130.086 19.5387 130.574 19.8165C130.574 19.8165 130.609 19.8164 130.609 19.8512C130.818 19.9553 130.783 20.233 130.713 20.4066C130.504 21.1356 130.33 21.3091 129.842 21.8645C129.528 22.2464 129.179 22.5935 129.005 23.0795C128.831 23.5308 128.9 23.8432 129.144 24.3292C129.528 25.0582 131.167 26.3078 131.794 26.6897C133.781 27.9047 135.664 23.9473 136.361 22.5935C136.501 22.3505 136.431 22.2117 136.291 22.0381C136.152 21.8993 136.082 21.8645 135.943 22.2117C135.385 23.7043 134.339 25.3359 132.91 26.1343C132.596 26.2731 132.317 26.2731 132.073 25.9954C131.934 25.8566 131.341 25.3359 131.236 25.1276C131.167 24.9193 131.167 24.8499 131.132 24.6416C131.062 24.1903 132.875 22.5241 133.014 21.7951C133.223 20.3719 131.794 18.7056 130.086 19.261C129.563 19.3999 129.075 19.7817 128.726 20.3024C128.587 19.9553 128.656 18.7056 128.866 18.3932L129.528 17.3171C130.156 16.3104 130.574 14.783 130.713 13.6375C130.783 13.1168 130.609 12.6308 130.33 12.2142C130.121 11.9365 129.877 11.7977 129.528 11.8324C128.482 11.9018 127.366 12.3184 126.077 16.1715C125.449 18.4973 125.275 19.6429 125.275 21.9687C125.24 23.3919 125.693 27.3145 127.68 27.7311ZM121.126 25.683C121.265 25.3706 121.509 25.4053 121.579 25.683C121.684 26.1343 122.555 26.7244 123.113 26.655C123.915 26.5508 124.856 25.44 125.1 25.0235C125.379 24.5375 125.972 23.7738 126.286 22.5588C126.321 22.3505 126.495 22.177 126.146 21.8993C125.867 21.691 125.763 21.7951 125.728 22.0381C125.554 23.0101 124.299 26.0301 123.078 25.7872C121.823 25.5094 122.032 23.6002 122.032 22.5935C122.067 22.5241 122.067 22.4547 122.172 22.3852L122.242 22.1075C122.242 21.9687 122.207 21.8993 122.032 21.8993C121.858 21.8993 121.649 21.8993 121.475 21.934C121.335 21.934 121.231 22.0381 121.231 22.177C121.196 22.6629 121.091 23.8432 121.021 24.2598C120.882 25.0582 120.324 26.0996 119.627 26.5161C119.104 26.8285 118.232 25.5094 118.372 25.0582C118.825 23.2184 119.976 21.7257 121.544 20.6496C121.719 20.5107 121.754 20.4413 121.684 20.233C121.091 18.8792 119.383 19.2263 118.79 18.7751C118.407 18.3932 116.106 21.8993 116.036 23.3225C115.966 24.954 116.245 26.169 118.128 27.0021C119.174 27.5228 120.359 27.5575 121.126 25.683ZM113.909 32.1397C113.979 32.105 114.014 32.105 114.049 32.0356C114.084 31.9661 114.014 31.8967 113.979 31.8967C113.108 31.0289 112.48 30.7859 112.794 29.1196C113.142 26.9674 114.293 22.3852 114.328 20.2677C114.363 18.3585 114.99 12.3878 112.271 11.9018C111.364 11.6935 110.353 11.8324 109.656 12.4572C108.366 13.6028 107.425 17.5601 107.425 19.3652C107.39 19.4693 107.46 19.5735 107.355 19.6082C107.285 19.5735 106.972 19.5735 106.972 19.504C106.414 18.2891 107.006 15.8244 105.194 15.3384C103.939 15.026 102.858 15.4773 102.091 16.484C101.394 17.3518 101.045 18.3585 101.045 19.4346C101.15 20.8926 101.463 20.5454 101.916 21.4827C101.986 21.6215 102.091 21.5868 102.161 21.4827C102.23 21.3786 100.975 16.9005 103.52 15.8938C103.834 15.755 104.113 15.8591 104.217 16.2063C104.322 16.5881 104.148 20.1289 104.078 20.719C103.904 21.8993 103.904 26.6203 104.984 27.5575C105.263 27.8005 106.344 27.9047 106.728 27.9047C107.39 27.9047 107.913 27.4881 107.913 26.7938C107.913 24.6069 108.018 22.42 108.122 20.1983C108.122 18.3238 108.819 16.6228 109.377 14.8872C109.517 14.3664 109.83 13.8805 110.074 13.3945C110.318 12.9779 111.051 12.3531 111.225 13.2209C111.364 13.9499 111.399 14.7483 111.364 15.512C111.33 16.727 111.19 17.9419 110.981 19.1222C110.144 23.4614 110.074 26.0649 111.574 30.161C111.748 30.7859 112.968 32.3133 113.909 32.1397Z" fill="#21272A"/>
<path d="M137.338 35.9929C137.338 35.5417 137.338 35.1598 137.304 34.9168C137.025 34.8821 136.676 34.8821 136.258 34.8821C135.839 34.8821 135.63 35.0557 135.63 35.4375C135.63 35.8194 135.979 35.9929 136.676 35.9929C136.885 36.0277 137.094 36.0277 137.338 35.9929ZM137.966 37.9022H137.338C137.373 37.5203 137.373 37.0343 137.373 36.4789C137.164 36.4442 136.955 36.4442 136.711 36.4442C136.362 36.4442 136.118 36.5136 135.979 36.6872C135.839 36.8261 135.7 37.2426 135.491 37.9022H134.898C135.107 37.3121 135.247 36.8955 135.386 36.6525C135.526 36.4095 135.665 36.2707 135.839 36.2359V36.2012C135.351 36.0971 135.107 35.8194 135.107 35.4028C135.107 34.7433 135.526 34.3961 136.397 34.3961C136.746 34.3961 137.129 34.3961 137.548 34.4308L138.001 34.3614C137.966 34.8821 137.966 35.4722 137.966 36.2012C137.896 36.9996 137.931 37.555 137.966 37.9022ZM134.236 37.9022H133.573C133.608 37.4856 133.643 36.9302 133.643 36.2707C133.643 36.0624 133.643 35.7847 133.678 35.4028H133.643C133.608 35.5764 133.259 35.9929 132.667 36.7219C132.074 37.3815 131.795 37.798 131.795 37.9369H131.272C131.307 37.4509 131.307 36.8955 131.307 36.3054C131.307 35.6111 131.272 35.021 131.168 34.5697L131.9 34.4656C131.865 34.9168 131.865 35.4722 131.865 36.1665C131.865 36.4095 131.865 36.7219 131.83 37.1038H131.865C131.935 36.9649 132.248 36.5136 132.841 35.7847C133.399 35.1251 133.678 34.7086 133.678 34.5697L134.201 34.4656C134.166 34.9515 134.166 35.5764 134.166 36.3054C134.166 36.8261 134.201 37.3815 134.236 37.9022ZM130.296 37.9022H129.669C129.703 37.4509 129.703 36.9302 129.703 36.3054H127.96C127.96 36.8261 127.995 37.3815 128.03 37.9022H127.403C127.437 37.4162 127.472 36.8608 127.472 36.2707C127.472 35.5764 127.437 34.9863 127.333 34.535L128.03 34.4308C128.03 34.6044 127.995 35.0904 127.995 35.8888H129.738C129.738 35.3334 129.669 34.9168 129.634 34.535L130.331 34.4308C130.296 34.9168 130.296 35.5417 130.296 36.2707C130.261 36.8261 130.261 37.3815 130.296 37.9022ZM125.869 37.2079C125.869 36.8261 125.869 36.5136 125.869 36.2359C125.415 36.2359 125.067 36.2707 124.823 36.3401C124.439 36.4442 124.23 36.6872 124.23 37.0343C124.23 37.3468 124.474 37.5203 124.927 37.5203C125.311 37.4856 125.625 37.3815 125.869 37.2079ZM126.496 37.9022L125.938 37.9369C125.903 37.8328 125.903 37.6939 125.903 37.5898H125.834C125.52 37.8675 125.136 38.0063 124.613 38.0063C124.335 38.0063 124.091 37.9369 123.881 37.7633C123.672 37.5898 123.568 37.3815 123.568 37.0691C123.568 36.6872 123.742 36.4095 124.056 36.1665C124.369 35.9582 124.962 35.8194 125.799 35.8194C125.799 35.75 125.799 35.6805 125.799 35.6111C125.799 35.2987 125.729 35.1251 125.555 35.021C125.38 34.9168 125.171 34.8821 124.823 34.8821C124.439 34.8821 124.056 34.9168 123.707 35.021L123.777 34.535C124.125 34.4308 124.544 34.3961 125.032 34.3961C125.45 34.3961 125.799 34.5003 126.043 34.6738C126.287 34.8474 126.391 35.1598 126.391 35.5764C126.391 35.6805 126.391 35.8888 126.391 36.2012C126.391 36.5136 126.391 36.6872 126.391 36.7914C126.391 37.1732 126.426 37.555 126.496 37.9022ZM122.835 37.9022H122.208C122.243 37.4162 122.243 36.8608 122.243 36.2707C122.243 35.8888 122.243 35.4722 122.243 34.9515H120.674C120.674 35.3681 120.674 35.7847 120.674 36.2707C120.674 36.8608 120.709 37.3815 120.744 37.9022H120.116C120.151 37.4162 120.186 36.8608 120.186 36.2707C120.186 35.5764 120.151 34.9863 120.046 34.535L120.744 34.5003H122.382L122.87 34.4308C122.835 34.9168 122.835 35.5417 122.835 36.2707C122.766 36.8261 122.766 37.3815 122.835 37.9022ZM119.07 37.9022H118.443C118.443 37.4509 118.443 36.8955 118.443 36.2359C118.443 35.5764 118.443 35.1598 118.443 35.021H118.408C118.338 35.1945 118.199 35.5417 117.99 36.0624C117.467 37.1732 117.188 37.798 117.188 37.9369H116.7C116.7 37.7286 116.49 37.1038 116.072 36.0971C115.967 35.8541 115.828 35.507 115.689 35.021H115.654C115.654 35.1598 115.654 35.6458 115.619 36.4095C115.584 37.1732 115.549 37.6939 115.549 37.9369H114.991C114.991 37.8675 115.026 37.3468 115.131 36.4095C115.235 35.4722 115.27 34.8127 115.27 34.535H116.142C116.142 34.8127 116.281 35.3334 116.595 36.0624C116.909 36.7914 117.048 37.2079 117.048 37.3121H117.083C117.083 37.2079 117.257 36.7914 117.571 36.0624C117.92 35.3334 118.059 34.8127 118.059 34.535H118.931C118.931 34.8474 118.966 35.4722 119.001 36.4095C119.07 37.2773 119.07 37.798 119.07 37.9022ZM113.527 36.2012C113.527 35.8194 113.422 35.507 113.248 35.1945C113.074 34.9168 112.795 34.7433 112.446 34.7433C112.098 34.7433 111.819 34.8821 111.644 35.1598C111.47 35.4375 111.366 35.75 111.366 36.1318C111.366 36.5136 111.47 36.8261 111.644 37.1385C111.819 37.4162 112.098 37.5898 112.446 37.5898C112.795 37.5898 113.074 37.4509 113.248 37.1732C113.422 36.8955 113.527 36.5484 113.527 36.2012ZM114.155 36.0624C114.155 36.6872 113.98 37.1732 113.632 37.4856C113.283 37.8328 112.865 38.0063 112.377 38.0063C111.923 38.0063 111.54 37.8675 111.226 37.555C110.912 37.2426 110.738 36.8261 110.738 36.2707C110.738 35.6458 110.912 35.1598 111.261 34.8127C111.61 34.4656 112.028 34.292 112.516 34.292C112.969 34.292 113.353 34.4308 113.666 34.7433C113.98 35.0904 114.155 35.507 114.155 36.0624ZM110.145 37.9022H109.483C109.448 37.8675 109.448 37.798 109.413 37.7286C109.274 37.2426 109.099 36.8608 108.925 36.6872C108.751 36.4789 108.507 36.4095 108.228 36.4095C108.123 36.4095 107.984 36.4095 107.844 36.4095C107.844 36.9649 107.879 37.4856 107.914 37.9369H107.252C107.287 37.4509 107.321 36.8955 107.321 36.3054C107.321 35.6111 107.287 35.021 107.182 34.5697L107.914 34.4656C107.879 34.9168 107.879 35.4375 107.879 35.9929C108.019 35.9929 108.158 35.9929 108.263 35.9929C108.786 35.9929 109.169 35.5417 109.378 34.6738C109.378 34.6044 109.413 34.5697 109.448 34.5003H110.041C110.006 34.5697 109.971 34.6738 109.901 34.8127C109.622 35.5764 109.309 35.9929 108.96 36.1318V36.1665C109.204 36.2359 109.378 36.3748 109.518 36.5831C109.657 36.7914 109.832 37.1038 109.971 37.5203C110.006 37.6245 110.076 37.7633 110.145 37.9022ZM104.044 35.9929C104.044 35.5417 104.044 35.1598 104.009 34.9168C103.731 34.8821 103.382 34.8821 102.964 34.8821C102.545 34.8821 102.336 35.0557 102.336 35.4375C102.336 35.8194 102.685 35.9929 103.382 35.9929C103.591 36.0277 103.8 36.0277 104.044 35.9929ZM104.637 37.9022H104.009C104.044 37.5203 104.044 37.0343 104.044 36.4789C103.835 36.4442 103.626 36.4442 103.382 36.4442C103.033 36.4442 102.789 36.5136 102.65 36.6872C102.51 36.8261 102.371 37.2426 102.162 37.9022H101.569C101.778 37.3121 101.918 36.8955 102.057 36.6525C102.197 36.4095 102.336 36.2707 102.51 36.2359V36.2012C102.022 36.0971 101.778 35.8194 101.778 35.4028C101.778 34.7433 102.197 34.3961 103.068 34.3961C103.417 34.3961 103.8 34.3961 104.219 34.4308L104.672 34.3614C104.637 34.8821 104.637 35.4722 104.637 36.2012C104.602 36.9996 104.602 37.555 104.637 37.9022ZM100.314 37.2079C100.314 36.8261 100.314 36.5136 100.314 36.2359C99.8608 36.2359 99.5121 36.2707 99.2681 36.3401C98.8846 36.4442 98.6754 36.6872 98.6754 37.0343C98.6754 37.3468 98.9195 37.5203 99.3727 37.5203C99.791 37.4856 100.105 37.3815 100.314 37.2079ZM100.976 37.9022L100.419 37.9369C100.384 37.8328 100.384 37.6939 100.384 37.5898H100.349C100.035 37.8675 99.6516 38.0063 99.1286 38.0063C98.8497 38.0063 98.6057 37.9369 98.3965 37.7633C98.1873 37.5898 98.0827 37.3815 98.0827 37.0691C98.0827 36.6872 98.2571 36.4095 98.5708 36.1665C98.8846 35.9582 99.4773 35.8194 100.314 35.8194C100.314 35.75 100.314 35.6805 100.314 35.6111C100.314 35.2987 100.244 35.1251 100.07 35.021C99.8956 34.9168 99.6864 34.8821 99.3378 34.8821C98.9543 34.8821 98.5708 34.9168 98.2222 35.021L98.2919 34.535C98.6406 34.4308 99.0589 34.3961 99.547 34.3961C99.9653 34.3961 100.314 34.5003 100.558 34.6738C100.802 34.8474 100.907 35.1598 100.907 35.5764C100.907 35.6805 100.907 35.8888 100.907 36.2012C100.907 36.5136 100.907 36.6872 100.907 36.7914C100.872 37.1732 100.907 37.555 100.976 37.9022ZM97.2809 37.9022H96.6534C96.6882 37.4509 96.6882 36.9302 96.6882 36.3054H94.9451C94.9451 36.8261 94.9799 37.3815 95.0148 37.9022H94.3873C94.4221 37.4162 94.457 36.8608 94.457 36.2707C94.457 35.5764 94.4221 34.9863 94.3175 34.535L95.0148 34.4308C95.0148 34.6044 94.9799 35.0904 94.9799 35.8888H96.7231C96.7231 35.3334 96.6534 34.9168 96.6185 34.535L97.3158 34.4308C97.2809 34.9168 97.2809 35.5417 97.2809 36.2707C97.246 36.8261 97.246 37.3815 97.2809 37.9022ZM93.446 37.9022H92.8184C92.8533 37.4509 92.8533 36.9302 92.8533 36.3054H91.1101C91.1101 36.8261 91.145 37.3815 91.1799 37.9022H90.5523C90.5872 37.4162 90.6221 36.8608 90.6221 36.2707C90.6221 35.5764 90.5872 34.9863 90.4826 34.535L91.1799 34.4308C91.1799 34.6044 91.145 35.0904 91.145 35.8888H92.8882C92.8882 35.3334 92.8184 34.9168 92.7836 34.535L93.4808 34.4308C93.446 34.9168 93.446 35.5417 93.446 36.2707C93.3762 36.8261 93.4111 37.3815 93.446 37.9022ZM89.0881 35.7847C89.0881 35.1251 88.8092 34.778 88.2514 34.778C87.6587 34.778 87.3449 35.1251 87.2404 35.8194L89.0881 35.7847ZM89.7156 35.7847C89.7156 35.8888 89.7156 36.0277 89.7156 36.2012L87.2404 36.2359C87.2752 36.5831 87.4147 36.8955 87.6587 37.1038C87.9028 37.3468 88.2514 37.4509 88.6349 37.4509C88.9835 37.4509 89.3321 37.4162 89.6808 37.3121L89.611 37.8328C89.367 37.9369 89.0184 37.9716 88.6 37.9716C87.9725 37.9716 87.4844 37.798 87.1706 37.4509C86.8569 37.1038 86.6826 36.6872 86.6826 36.2012C86.6826 35.6805 86.822 35.2293 87.1358 34.8474C87.4495 34.4656 87.833 34.292 88.356 34.292C88.8092 34.292 89.1578 34.4308 89.4019 34.7086C89.5762 34.9863 89.7156 35.3334 89.7156 35.7847ZM85.1834 35.3681C85.1834 35.021 84.9394 34.8474 84.4513 34.8474C84.2073 34.8474 83.9284 34.8474 83.6146 34.8821C83.6495 35.2293 83.6495 35.5764 83.6495 35.8888C83.9632 35.8888 84.2073 35.8888 84.4165 35.8888C84.6605 35.8888 84.8697 35.8194 85.0091 35.7152C85.1137 35.6805 85.1834 35.5417 85.1834 35.3681ZM85.288 36.9302C85.288 36.6872 85.1834 36.5136 84.9394 36.4442C84.8 36.3748 84.5908 36.3748 84.277 36.3748C84.0678 36.3748 83.8238 36.3748 83.6146 36.4095C83.6146 36.8261 83.6146 37.2079 83.6146 37.4856C83.8238 37.5203 84.1027 37.5203 84.4165 37.5203C85.0091 37.4856 85.288 37.2773 85.288 36.9302ZM85.8807 36.8955C85.8807 37.2426 85.7413 37.4856 85.4624 37.6592C85.1834 37.8328 84.7999 37.9369 84.277 37.9369C83.9981 37.9369 83.5798 37.9369 83.0219 37.9022C83.0568 37.5898 83.0568 37.0343 83.0568 36.2359C83.0568 35.507 83.0219 34.9168 82.9173 34.4656H83.3008C83.6495 34.4308 84.033 34.4308 84.3816 34.4308C85.2532 34.4308 85.6715 34.7086 85.6715 35.2293C85.6715 35.6111 85.4972 35.8888 85.1486 36.0277V36.0624C85.6715 36.1318 85.8807 36.4095 85.8807 36.8955ZM82.3944 34.4656L82.3595 34.9863C81.976 34.9515 81.5926 34.9168 81.2091 34.9168C81.2091 35.264 81.2091 35.6805 81.2091 36.2012C81.2091 36.7914 81.2439 37.3121 81.2788 37.8328H80.6164C80.6513 37.3468 80.6513 36.7914 80.6513 36.2012C80.6513 35.6805 80.6513 35.264 80.6164 34.9168C80.2329 34.9168 79.8494 34.9515 79.431 34.9863L79.4659 34.4656H82.3944ZM79.0476 37.3468L79.0127 37.8328C78.8035 37.9369 78.5595 38.0063 78.2108 38.0063C77.5833 38.0063 77.0952 37.8328 76.7815 37.4856C76.4677 37.1385 76.2934 36.7219 76.2934 36.2359C76.2934 35.7152 76.4677 35.264 76.8163 34.9168C77.165 34.535 77.6182 34.3614 78.2108 34.3614C78.4897 34.3614 78.7338 34.3961 78.9081 34.4308L78.8035 34.9863C78.5595 34.8821 78.2806 34.8474 78.0365 34.8474C77.6879 34.8474 77.409 34.9515 77.2347 35.1945C77.0255 35.4375 76.9209 35.7152 76.9209 36.0971C76.9209 36.4789 77.0255 36.8261 77.2696 37.0691C77.5136 37.3121 77.8622 37.4509 78.2806 37.4509C78.4898 37.4856 78.7338 37.4162 79.0476 37.3468ZM74.5154 37.4162C74.4805 36.9302 74.4805 36.5484 74.4805 36.2359C74.4805 35.75 74.4805 35.2987 74.4456 34.9168H73.8181C73.6787 35.1945 73.5043 35.5417 73.2952 35.9929C73.086 36.4442 72.9117 36.9302 72.8071 37.4162H74.5154ZM75.7356 37.4162C75.7356 37.555 75.7007 37.8328 75.6659 38.284C75.5961 38.7353 75.5961 39.1171 75.5961 39.3601H75.1778C75.1778 39.0477 75.1778 38.5617 75.1778 37.8328C74.864 37.8328 74.3759 37.798 73.7832 37.798C73.3998 37.798 72.9814 37.798 72.563 37.8328C72.4585 38.527 72.3887 39.0477 72.3887 39.3601H71.9704C71.9704 39.1519 71.9704 38.8394 71.9704 38.4576C71.9704 38.0757 71.9704 37.7286 71.9704 37.4162H72.319C72.563 36.5484 72.9814 35.5417 73.5741 34.4656H74.62L75.108 34.3961C75.0732 34.8821 75.0732 35.507 75.0732 36.2359C75.0732 36.5136 75.108 36.9302 75.1429 37.4162H75.7356ZM70.785 36.2012C70.785 35.8194 70.6804 35.507 70.5061 35.1945C70.3318 34.9168 70.0529 34.7433 69.7043 34.7433C69.3556 34.7433 69.0767 34.8821 68.9024 35.1598C68.7281 35.4375 68.6235 35.75 68.6235 36.1318C68.6235 36.5136 68.7281 36.8261 68.9024 37.1385C69.0767 37.4162 69.3556 37.5898 69.7043 37.5898C70.0529 37.5898 70.3318 37.4509 70.5061 37.1732C70.7153 36.8955 70.785 36.5484 70.785 36.2012ZM71.4126 36.0624C71.4126 36.6872 71.2382 37.1732 70.8896 37.4856C70.541 37.8328 70.1226 38.0063 69.6346 38.0063C69.1813 38.0063 68.7978 37.8675 68.4841 37.555C68.1703 37.2426 67.996 36.8261 67.996 36.2707C67.996 35.6458 68.1703 35.1598 68.5189 34.8127C68.8676 34.4656 69.2859 34.292 69.774 34.292C70.2272 34.292 70.6107 34.4308 70.9245 34.7433C71.2731 35.0904 71.4126 35.507 71.4126 36.0624ZM66.5317 35.3681C66.5317 35.021 66.2877 34.8474 65.7996 34.8474C65.5556 34.8474 65.2767 34.8474 64.9629 34.8821C64.9978 35.2293 64.9978 35.5764 64.9978 35.8888C65.3115 35.8888 65.5556 35.8888 65.7648 35.8888C66.0088 35.8888 66.218 35.8194 66.3574 35.7152C66.462 35.6805 66.5317 35.5417 66.5317 35.3681ZM66.6712 36.9302C66.6712 36.6872 66.5666 36.5136 66.3226 36.4442C66.1831 36.3748 65.9739 36.3748 65.6602 36.3748C65.451 36.3748 65.207 36.3748 64.9978 36.4095C64.9978 36.8261 64.9978 37.2079 64.9978 37.4856C65.207 37.5203 65.4859 37.5203 65.7996 37.5203C66.3923 37.4856 66.6712 37.2773 66.6712 36.9302ZM67.2639 36.8955C67.2639 37.2426 67.1244 37.4856 66.8455 37.6592C66.5666 37.8328 66.1831 37.9369 65.6602 37.9369C65.3813 37.9369 64.9629 37.9369 64.4051 37.9022C64.44 37.5898 64.44 37.0343 64.44 36.2359C64.44 35.507 64.4051 34.9168 64.3005 34.4656H64.684C65.0326 34.4308 65.4161 34.4308 65.7648 34.4308C66.6363 34.4308 67.0547 34.7086 67.0547 35.2293C67.0547 35.6111 66.8804 35.8888 66.5317 36.0277V36.0624C67.0198 36.1318 67.2639 36.4095 67.2639 36.8955ZM63.5684 36.8608C63.5684 37.2426 63.4289 37.5203 63.1152 37.6939C62.8014 37.8675 62.4876 37.9716 62.0693 37.9716C61.6509 37.9716 61.2326 37.9369 60.9188 37.8328L60.9885 37.3468C61.2674 37.4509 61.6509 37.5203 62.1041 37.5203C62.7317 37.5203 63.0106 37.3121 63.0106 36.9302C63.0106 36.5136 62.662 36.3401 61.9298 36.3401C61.7207 36.3401 61.5115 36.3401 61.3023 36.3748L61.372 35.8888C61.5812 35.8888 61.7555 35.9235 61.9647 35.9235C62.6271 35.9235 62.9409 35.7152 62.9409 35.3334C62.9409 35.021 62.662 34.8474 62.0693 34.8474C61.6858 34.8474 61.3372 34.8821 61.0583 34.9863L61.128 34.5003C61.4418 34.3961 61.7904 34.3614 62.1739 34.3614C63.0454 34.3614 63.4987 34.6391 63.4987 35.1598C63.4987 35.5417 63.3244 35.8194 62.9409 35.9929V36.0277C63.1152 36.0624 63.2546 36.1318 63.3941 36.2707C63.4987 36.4095 63.5684 36.6178 63.5684 36.8608ZM60.2215 37.9022H59.5592C59.594 37.4856 59.6289 36.9302 59.6289 36.2707C59.6289 36.0624 59.6289 35.7847 59.6637 35.4028H59.6289C59.594 35.5764 59.2454 35.9929 58.6527 36.7219C58.06 37.3815 57.7811 37.798 57.7811 37.9369H57.2582C57.2931 37.4509 57.2931 36.8955 57.2931 36.3054C57.2931 35.6111 57.2582 35.021 57.1536 34.5697L57.8857 34.4656C57.8509 34.9168 57.8509 35.4722 57.8509 36.1665C57.8509 36.4095 57.8509 36.7219 57.816 37.1038H57.8509C57.9206 36.9649 58.2344 36.5136 58.827 35.7847C59.3848 35.1251 59.6637 34.7086 59.6637 34.5697L60.1867 34.4656C60.1518 34.9515 60.1518 35.5764 60.1518 36.3054C60.1518 36.8261 60.1867 37.3815 60.2215 37.9022ZM55.794 36.2012C55.794 35.8194 55.6894 35.507 55.515 35.1945C55.3407 34.9168 55.0618 34.7433 54.7132 34.7433C54.3646 34.7433 54.0857 34.8821 53.9113 35.1598C53.737 35.4375 53.6324 35.75 53.6324 36.1318C53.6324 36.5136 53.737 36.8261 53.9113 37.1385C54.0857 37.4162 54.3646 37.5898 54.7132 37.5898C55.0618 37.5898 55.3407 37.4509 55.515 37.1732C55.6894 36.8955 55.794 36.5484 55.794 36.2012ZM56.4215 36.0624C56.4215 36.6872 56.2472 37.1732 55.8985 37.4856C55.5499 37.8328 55.1316 38.0063 54.6435 38.0063C54.1903 38.0063 53.8068 37.8675 53.493 37.555C53.1792 37.2426 53.0049 36.8261 53.0049 36.2707C53.0049 35.6458 53.1792 35.1598 53.5279 34.8127C53.8765 34.4656 54.2948 34.292 54.7829 34.292C55.2361 34.292 55.6196 34.4308 55.9334 34.7433C56.2472 35.0904 56.4215 35.507 56.4215 36.0624ZM51.6104 36.1318C51.6104 35.7847 51.5058 35.4722 51.3315 35.2293C51.1572 34.9863 50.8783 34.8474 50.5296 34.8474C50.1113 34.8474 49.7975 34.9863 49.5883 35.2293C49.6232 36.0277 49.6581 36.7219 49.6581 37.3121C49.8672 37.4856 50.1113 37.555 50.4251 37.555C50.8085 37.555 51.1223 37.4162 51.3315 37.1385C51.5407 36.8608 51.6104 36.5136 51.6104 36.1318ZM52.2728 36.0277C52.2728 36.5484 52.1333 36.9996 51.8196 37.3815C51.5058 37.7633 51.1223 37.9716 50.5645 37.9716C50.1113 37.9716 49.8324 37.9022 49.6929 37.7286H49.6581C49.6581 38.3882 49.6581 38.9783 49.6929 39.499H48.9957C49.0654 38.8742 49.0654 38.0757 49.0654 37.1385C49.0654 35.9929 48.9957 35.0904 48.8911 34.4656L49.5186 34.3614L49.5883 34.7086H49.6232C49.8672 34.4308 50.2507 34.292 50.7737 34.292C51.2269 34.292 51.6104 34.4656 51.8544 34.778C52.1333 35.1945 52.2728 35.5764 52.2728 36.0277ZM48.0195 37.9022H47.392C47.4268 37.4162 47.4268 36.8608 47.4268 36.2707C47.4268 35.8888 47.4268 35.4722 47.4268 34.9515H45.858C45.858 35.3681 45.858 35.7847 45.858 36.2707C45.858 36.8608 45.8929 37.3815 45.9277 37.9022H45.3002C45.3351 37.4162 45.3699 36.8608 45.3699 36.2707C45.3699 35.5764 45.3351 34.9863 45.2305 34.535L45.9277 34.5003H47.5663L48.0544 34.4308C48.0195 34.9168 48.0195 35.5417 48.0195 36.2707C47.9846 36.8261 47.9846 37.3815 48.0195 37.9022Z" fill="#21272A"/>
<path fill-rule="evenodd" clip-rule="evenodd" d="M23.6499 11.7973C24.5563 9.0202 19.1874 -0.525977 13.3304 2.91065C9.32118 5.23644 9.60009 12.0056 19.5012 13.0122C23.5801 13.4288 22.4994 11.4849 21.8021 11.346C20.826 11.1724 19.4314 11.7278 16.8167 11.0336C15.4571 10.6864 14.1323 10.0616 13.435 9.22848C10.5414 5.82657 15.3873 0.862559 20.1636 4.75046C22.848 6.9374 22.9177 10.0963 23.6499 11.7973Z" fill="#21272A"/>
<path fill-rule="evenodd" clip-rule="evenodd" d="M12.1451 19.99C12.1102 20.0595 11.5175 20.6496 11.7267 21.1009C13.0515 22.3505 19.9892 22.0034 22.3251 21.8298C25.2187 21.6216 29.7857 21.5174 32.5051 21.205C32.9583 21.1356 32.8885 21.205 32.9931 20.9273C31.9124 20.5107 24.6609 20.233 22.8829 20.1289C19.3268 19.9553 15.8405 19.8859 12.2148 20.0595C12.4937 18.6709 12.8423 17.4907 12.4937 15.8939C12.3891 15.4426 12.3194 15.0607 11.8662 14.9219C11.134 15.3037 11.3084 16.6923 11.4129 17.5601C11.5175 18.3238 11.5873 19.6429 12.1451 19.99Z" fill="#21272A"/>
<path fill-rule="evenodd" clip-rule="evenodd" d="M25.0444 11.1036C25.7766 9.7498 24.3123 3.57082 27.7289 2.14757C31.8079 0.446616 30.4482 9.95808 25.9857 12.631C25.6022 12.874 25.0444 13.0129 24.6609 13.2558C24.9399 13.4641 25.3582 13.4294 25.7068 13.3253C25.9857 13.2558 26.3344 13.0823 26.5784 12.9087C29.0537 11.416 33.551 4.95935 30.5528 1.6963C28.7051 -0.351793 25.7417 0.273051 24.4866 3.22369C23.9288 4.5428 23.7545 5.79248 23.7545 7.38929C23.7545 8.53483 23.6848 11.3466 25.0444 11.1036Z" fill="#21272A"/>
<path fill-rule="evenodd" clip-rule="evenodd" d="M17.4787 13.9498C17.3742 12.9431 14.0622 12.3877 13.1209 12.1794C10.6456 11.624 7.33362 11.0686 4.75376 11.5546C4.12622 11.6587 2.87115 12.11 2.41794 12.353C1.54636 12.8737 -0.161925 14.7829 0.0123895 16.2061C0.116978 16.831 0.744513 18.046 1.5115 17.4211C1.5115 17.4211 2.97574 15.4772 3.63814 14.9218C3.98677 14.6093 4.19595 14.5746 4.57944 14.2969C5.03266 13.9498 4.9978 13.9498 5.59047 13.7068C8.03088 12.7348 9.28594 12.5265 12.2493 12.9431C13.5044 13.1514 16.5026 14.0886 17.4787 13.9498Z" fill="#21272A"/>
<path fill-rule="evenodd" clip-rule="evenodd" d="M12.7715 15.2341C12.7715 15.8936 13.5733 15.8242 14.8284 15.9284C18.3147 16.2408 24.5552 16.4144 28.0763 16.4144C28.9828 16.4144 29.9241 16.4144 30.8305 16.4144C31.6672 16.4144 32.7828 16.4491 32.7828 15.6159C32.7828 14.1927 29.8195 14.3663 28.4598 14.401C26.647 14.4357 24.8341 14.4704 23.0561 14.5398C21.557 14.6093 13.6082 14.8175 12.7715 15.2341Z" fill="#21272A"/>
<path fill-rule="evenodd" clip-rule="evenodd" d="M32.5739 37.3462C31.9812 36.895 15.4911 36.7908 13.225 36.7214C13.0855 35.8189 13.2598 33.979 13.225 32.9376C13.1901 31.688 13.225 30.4036 13.1552 29.1539C13.0506 27.5571 13.0855 23.2526 12.702 22.0029C12.4231 22.1765 12.4928 22.0724 12.4231 22.9055C12.1791 26.2727 11.9699 32.3128 12.0745 35.5064C12.1442 37.8669 11.8653 38.0058 14.3406 37.9711C16.258 37.9364 32.1556 37.5892 32.5739 37.3462Z" fill="#21272A"/>
<path fill-rule="evenodd" clip-rule="evenodd" d="M33.4803 17.6986C33.4454 20.1633 33.9335 34.0139 34.2821 34.6734C34.4216 34.361 35.6766 18.1499 34.8051 16.0671C34.3867 14.991 33.5151 15.0257 33.4803 17.6986Z" fill="#21272A"/>
<path fill-rule="evenodd" clip-rule="evenodd" d="M25.3926 14.0543C27.1357 15.2692 28.9835 11.0689 35.3634 13.4294C36.0955 13.7071 37.7689 14.6097 38.3267 14.575C38.8497 11.9715 34.457 10.6176 32.2606 10.7912C30.5174 10.9301 29.7504 11.5202 28.6348 12.2839C27.833 12.8393 27.1706 13.3253 26.1944 13.6724C25.9504 13.7418 25.4972 13.7766 25.3926 14.0543Z" fill="#21272A"/>
<path fill-rule="evenodd" clip-rule="evenodd" d="M23.6499 11.7973C24.5563 9.0202 19.1874 -0.525977 13.3304 2.91065C9.32118 5.23644 9.60009 12.0056 19.5012 13.0122C23.5801 13.4288 22.4994 11.4849 21.8021 11.346C20.826 11.1724 19.4314 11.7278 16.8167 11.0336C15.4571 10.6864 14.1323 10.0616 13.435 9.22848C10.5414 5.82657 15.3873 0.862559 20.1636 4.75046C22.848 6.9374 22.9177 10.0963 23.6499 11.7973Z" fill="#21272A"/>
<path fill-rule="evenodd" clip-rule="evenodd" d="M12.1451 19.99C12.1102 20.0595 11.5175 20.6496 11.7267 21.1009C13.0515 22.3505 19.9892 22.0034 22.3251 21.8298C25.2187 21.6216 29.7857 21.5174 32.5051 21.205C32.9583 21.1356 32.8885 21.205 32.9931 20.9273C31.9124 20.5107 24.6609 20.233 22.8829 20.1289C19.3268 19.9553 15.8405 19.8859 12.2148 20.0595C12.4937 18.6709 12.8423 17.4907 12.4937 15.8939C12.3891 15.4426 12.3194 15.0607 11.8662 14.9219C11.134 15.3037 11.3084 16.6923 11.4129 17.5601C11.5175 18.3238 11.5873 19.6429 12.1451 19.99Z" fill="#21272A"/>
<path fill-rule="evenodd" clip-rule="evenodd" d="M25.0444 11.1036C25.7766 9.7498 24.3123 3.57082 27.7289 2.14757C31.8079 0.446616 30.4482 9.95808 25.9857 12.631C25.6022 12.874 25.0444 13.0129 24.6609 13.2558C24.9399 13.4641 25.3582 13.4294 25.7068 13.3253C25.9857 13.2558 26.3344 13.0823 26.5784 12.9087C29.0537 11.416 33.551 4.95935 30.5528 1.6963C28.7051 -0.351793 25.7417 0.273051 24.4866 3.22369C23.9288 4.5428 23.7545 5.79248 23.7545 7.38929C23.7545 8.53483 23.6848 11.3466 25.0444 11.1036Z" fill="#21272A"/>
<path fill-rule="evenodd" clip-rule="evenodd" d="M17.4787 13.9498C17.3742 12.9431 14.0622 12.3877 13.1209 12.1794C10.6456 11.624 7.33362 11.0686 4.75376 11.5546C4.12622 11.6587 2.87115 12.11 2.41794 12.353C1.54636 12.8737 -0.161925 14.7829 0.0123895 16.2061C0.116978 16.831 0.744513 18.046 1.5115 17.4211C1.5115 17.4211 2.97574 15.4772 3.63814 14.9218C3.98677 14.6093 4.19595 14.5746 4.57944 14.2969C5.03266 13.9498 4.9978 13.9498 5.59047 13.7068C8.03088 12.7348 9.28594 12.5265 12.2493 12.9431C13.5044 13.1514 16.5026 14.0886 17.4787 13.9498Z" fill="#21272A"/>
<path fill-rule="evenodd" clip-rule="evenodd" d="M12.7715 15.2341C12.7715 15.8936 13.5733 15.8242 14.8284 15.9284C18.3147 16.2408 24.5552 16.4144 28.0763 16.4144C28.9828 16.4144 29.9241 16.4144 30.8305 16.4144C31.6672 16.4144 32.7828 16.4491 32.7828 15.6159C32.7828 14.1927 29.8195 14.3663 28.4598 14.401C26.647 14.4357 24.8341 14.4704 23.0561 14.5398C21.557 14.6093 13.6082 14.8175 12.7715 15.2341Z" fill="#21272A"/>
<path fill-rule="evenodd" clip-rule="evenodd" d="M32.5739 37.3462C31.9812 36.895 15.4911 36.7908 13.225 36.7214C13.0855 35.8189 13.2598 33.979 13.225 32.9376C13.1901 31.688 13.225 30.4036 13.1552 29.1539C13.0506 27.5571 13.0855 23.2526 12.702 22.0029C12.4231 22.1765 12.4928 22.0724 12.4231 22.9055C12.1791 26.2727 11.9699 32.3128 12.0745 35.5064C12.1442 37.8669 11.8653 38.0058 14.3406 37.9711C16.258 37.9364 32.1556 37.5892 32.5739 37.3462Z" fill="#21272A"/>
<path fill-rule="evenodd" clip-rule="evenodd" d="M33.4803 14.5394C33.4454 17.0041 33.9335 30.8547 34.2821 31.5143C34.4216 31.2019 35.6766 14.9907 34.8051 12.9079C34.3867 11.8318 33.5151 11.8665 33.4803 14.5394Z" fill="#21272A"/>
<path fill-rule="evenodd" clip-rule="evenodd" d="M25.3926 14.0543C27.1357 15.2692 28.9835 11.0689 35.3634 13.4294C36.0955 13.7071 37.7689 14.6097 38.3267 14.575C38.8497 11.9715 34.457 10.6176 32.2606 10.7912C30.5174 10.9301 29.7504 11.5202 28.6348 12.2839C27.833 12.8393 27.1706 13.3253 26.1944 13.6724C25.9504 13.7418 25.4972 13.7766 25.3926 14.0543Z" fill="#21272A"/>
<path d="M137.338 35.9929C137.338 35.5417 137.338 35.1598 137.304 34.9168C137.025 34.8821 136.676 34.8821 136.258 34.8821C135.839 34.8821 135.63 35.0557 135.63 35.4375C135.63 35.8194 135.979 35.9929 136.676 35.9929C136.885 36.0277 137.094 36.0277 137.338 35.9929ZM137.966 37.9022H137.338C137.373 37.5203 137.373 37.0343 137.373 36.4789C137.164 36.4442 136.955 36.4442 136.711 36.4442C136.362 36.4442 136.118 36.5136 135.979 36.6872C135.839 36.8261 135.7 37.2426 135.491 37.9022H134.898C135.107 37.3121 135.247 36.8955 135.386 36.6525C135.526 36.4095 135.665 36.2707 135.839 36.2359V36.2012C135.351 36.0971 135.107 35.8194 135.107 35.4028C135.107 34.7433 135.526 34.3961 136.397 34.3961C136.746 34.3961 137.129 34.3961 137.548 34.4308L138.001 34.3614C137.966 34.8821 137.966 35.4722 137.966 36.2012C137.896 36.9996 137.931 37.555 137.966 37.9022ZM134.236 37.9022H133.573C133.608 37.4856 133.643 36.9302 133.643 36.2707C133.643 36.0624 133.643 35.7847 133.678 35.4028H133.643C133.608 35.5764 133.259 35.9929 132.667 36.7219C132.074 37.3815 131.795 37.798 131.795 37.9369H131.272C131.307 37.4509 131.307 36.8955 131.307 36.3054C131.307 35.6111 131.272 35.021 131.168 34.5697L131.9 34.4656C131.865 34.9168 131.865 35.4722 131.865 36.1665C131.865 36.4095 131.865 36.7219 131.83 37.1038H131.865C131.935 36.9649 132.248 36.5136 132.841 35.7847C133.399 35.1251 133.678 34.7086 133.678 34.5697L134.201 34.4656C134.166 34.9515 134.166 35.5764 134.166 36.3054C134.166 36.8261 134.201 37.3815 134.236 37.9022ZM130.296 37.9022H129.669C129.703 37.4509 129.703 36.9302 129.703 36.3054H127.96C127.96 36.8261 127.995 37.3815 128.03 37.9022H127.403C127.437 37.4162 127.472 36.8608 127.472 36.2707C127.472 35.5764 127.437 34.9863 127.333 34.535L128.03 34.4308C128.03 34.6044 127.995 35.0904 127.995 35.8888H129.738C129.738 35.3334 129.669 34.9168 129.634 34.535L130.331 34.4308C130.296 34.9168 130.296 35.5417 130.296 36.2707C130.261 36.8261 130.261 37.3815 130.296 37.9022ZM125.869 37.2079C125.869 36.8261 125.869 36.5136 125.869 36.2359C125.415 36.2359 125.067 36.2707 124.823 36.3401C124.439 36.4442 124.23 36.6872 124.23 37.0343C124.23 37.3468 124.474 37.5203 124.927 37.5203C125.311 37.4856 125.625 37.3815 125.869 37.2079ZM126.496 37.9022L125.938 37.9369C125.903 37.8328 125.903 37.6939 125.903 37.5898H125.834C125.52 37.8675 125.136 38.0063 124.613 38.0063C124.335 38.0063 124.091 37.9369 123.881 37.7633C123.672 37.5898 123.568 37.3815 123.568 37.0691C123.568 36.6872 123.742 36.4095 124.056 36.1665C124.369 35.9582 124.962 35.8194 125.799 35.8194C125.799 35.75 125.799 35.6805 125.799 35.6111C125.799 35.2987 125.729 35.1251 125.555 35.021C125.38 34.9168 125.171 34.8821 124.823 34.8821C124.439 34.8821 124.056 34.9168 123.707 35.021L123.777 34.535C124.125 34.4308 124.544 34.3961 125.032 34.3961C125.45 34.3961 125.799 34.5003 126.043 34.6738C126.287 34.8474 126.391 35.1598 126.391 35.5764C126.391 35.6805 126.391 35.8888 126.391 36.2012C126.391 36.5136 126.391 36.6872 126.391 36.7914C126.391 37.1732 126.426 37.555 126.496 37.9022ZM122.835 37.9022H122.208C122.243 37.4162 122.243 36.8608 122.243 36.2707C122.243 35.8888 122.243 35.4722 122.243 34.9515H120.674C120.674 35.3681 120.674 35.7847 120.674 36.2707C120.674 36.8608 120.709 37.3815 120.744 37.9022H120.116C120.151 37.4162 120.186 36.8608 120.186 36.2707C120.186 35.5764 120.151 34.9863 120.046 34.535L120.744 34.5003H122.382L122.87 34.4308C122.835 34.9168 122.835 35.5417 122.835 36.2707C122.766 36.8261 122.766 37.3815 122.835 37.9022ZM119.07 37.9022H118.443C118.443 37.4509 118.443 36.8955 118.443 36.2359C118.443 35.5764 118.443 35.1598 118.443 35.021H118.408C118.338 35.1945 118.199 35.5417 117.99 36.0624C117.467 37.1732 117.188 37.798 117.188 37.9369H116.7C116.7 37.7286 116.49 37.1038 116.072 36.0971C115.967 35.8541 115.828 35.507 115.689 35.021H115.654C115.654 35.1598 115.654 35.6458 115.619 36.4095C115.584 37.1732 115.549 37.6939 115.549 37.9369H114.991C114.991 37.8675 115.026 37.3468 115.131 36.4095C115.235 35.4722 115.27 34.8127 115.27 34.535H116.142C116.142 34.8127 116.281 35.3334 116.595 36.0624C116.909 36.7914 117.048 37.2079 117.048 37.3121H117.083C117.083 37.2079 117.257 36.7914 117.571 36.0624C117.92 35.3334 118.059 34.8127 118.059 34.535H118.931C118.931 34.8474 118.966 35.4722 119.001 36.4095C119.07 37.2773 119.07 37.798 119.07 37.9022ZM113.527 36.2012C113.527 35.8194 113.422 35.507 113.248 35.1945C113.074 34.9168 112.795 34.7433 112.446 34.7433C112.098 34.7433 111.819 34.8821 111.644 35.1598C111.47 35.4375 111.366 35.75 111.366 36.1318C111.366 36.5136 111.47 36.8261 111.644 37.1385C111.819 37.4162 112.098 37.5898 112.446 37.5898C112.795 37.5898 113.074 37.4509 113.248 37.1732C113.422 36.8955 113.527 36.5484 113.527 36.2012ZM114.155 36.0624C114.155 36.6872 113.98 37.1732 113.632 37.4856C113.283 37.8328 112.865 38.0063 112.377 38.0063C111.923 38.0063 111.54 37.8675 111.226 37.555C110.912 37.2426 110.738 36.8261 110.738 36.2707C110.738 35.6458 110.912 35.1598 111.261 34.8127C111.61 34.4656 112.028 34.292 112.516 34.292C112.969 34.292 113.353 34.4308 113.666 34.7433C113.98 35.0904 114.155 35.507 114.155 36.0624ZM110.145 37.9022H109.483C109.448 37.8675 109.448 37.798 109.413 37.7286C109.274 37.2426 109.099 36.8608 108.925 36.6872C108.751 36.4789 108.507 36.4095 108.228 36.4095C108.123 36.4095 107.984 36.4095 107.844 36.4095C107.844 36.9649 107.879 37.4856 107.914 37.9369H107.252C107.287 37.4509 107.321 36.8955 107.321 36.3054C107.321 35.6111 107.287 35.021 107.182 34.5697L107.914 34.4656C107.879 34.9168 107.879 35.4375 107.879 35.9929C108.019 35.9929 108.158 35.9929 108.263 35.9929C108.786 35.9929 109.169 35.5417 109.378 34.6738C109.378 34.6044 109.413 34.5697 109.448 34.5003H110.041C110.006 34.5697 109.971 34.6738 109.901 34.8127C109.622 35.5764 109.309 35.9929 108.96 36.1318V36.1665C109.204 36.2359 109.378 36.3748 109.518 36.5831C109.657 36.7914 109.832 37.1038 109.971 37.5203C110.006 37.6245 110.076 37.7633 110.145 37.9022ZM104.044 35.9929C104.044 35.5417 104.044 35.1598 104.009 34.9168C103.731 34.8821 103.382 34.8821 102.964 34.8821C102.545 34.8821 102.336 35.0557 102.336 35.4375C102.336 35.8194 102.685 35.9929 103.382 35.9929C103.591 36.0277 103.8 36.0277 104.044 35.9929ZM104.637 37.9022H104.009C104.044 37.5203 104.044 37.0343 104.044 36.4789C103.835 36.4442 103.626 36.4442 103.382 36.4442C103.033 36.4442 102.789 36.5136 102.65 36.6872C102.51 36.8261 102.371 37.2426 102.162 37.9022H101.569C101.778 37.3121 101.918 36.8955 102.057 36.6525C102.197 36.4095 102.336 36.2707 102.51 36.2359V36.2012C102.022 36.0971 101.778 35.8194 101.778 35.4028C101.778 34.7433 102.197 34.3961 103.068 34.3961C103.417 34.3961 103.8 34.3961 104.219 34.4308L104.672 34.3614C104.637 34.8821 104.637 35.4722 104.637 36.2012C104.602 36.9996 104.602 37.555 104.637 37.9022ZM100.314 37.2079C100.314 36.8261 100.314 36.5136 100.314 36.2359C99.8608 36.2359 99.5121 36.2707 99.2681 36.3401C98.8846 36.4442 98.6754 36.6872 98.6754 37.0343C98.6754 37.3468 98.9195 37.5203 99.3727 37.5203C99.791 37.4856 100.105 37.3815 100.314 37.2079ZM100.976 37.9022L100.419 37.9369C100.384 37.8328 100.384 37.6939 100.384 37.5898H100.349C100.035 37.8675 99.6516 38.0063 99.1286 38.0063C98.8497 38.0063 98.6057 37.9369 98.3965 37.7633C98.1873 37.5898 98.0827 37.3815 98.0827 37.0691C98.0827 36.6872 98.2571 36.4095 98.5708 36.1665C98.8846 35.9582 99.4773 35.8194 100.314 35.8194C100.314 35.75 100.314 35.6805 100.314 35.6111C100.314 35.2987 100.244 35.1251 100.07 35.021C99.8956 34.9168 99.6864 34.8821 99.3378 34.8821C98.9543 34.8821 98.5708 34.9168 98.2222 35.021L98.2919 34.535C98.6406 34.4308 99.0589 34.3961 99.547 34.3961C99.9653 34.3961 100.314 34.5003 100.558 34.6738C100.802 34.8474 100.907 35.1598 100.907 35.5764C100.907 35.6805 100.907 35.8888 100.907 36.2012C100.907 36.5136 100.907 36.6872 100.907 36.7914C100.872 37.1732 100.907 37.555 100.976 37.9022ZM97.2809 37.9022H96.6534C96.6882 37.4509 96.6882 36.9302 96.6882 36.3054H94.9451C94.9451 36.8261 94.9799 37.3815 95.0148 37.9022H94.3873C94.4221 37.4162 94.457 36.8608 94.457 36.2707C94.457 35.5764 94.4221 34.9863 94.3175 34.535L95.0148 34.4308C95.0148 34.6044 94.9799 35.0904 94.9799 35.8888H96.7231C96.7231 35.3334 96.6534 34.9168 96.6185 34.535L97.3158 34.4308C97.2809 34.9168 97.2809 35.5417 97.2809 36.2707C97.246 36.8261 97.246 37.3815 97.2809 37.9022ZM93.446 37.9022H92.8184C92.8533 37.4509 92.8533 36.9302 92.8533 36.3054H91.1101C91.1101 36.8261 91.145 37.3815 91.1799 37.9022H90.5523C90.5872 37.4162 90.6221 36.8608 90.6221 36.2707C90.6221 35.5764 90.5872 34.9863 90.4826 34.535L91.1799 34.4308C91.1799 34.6044 91.145 35.0904 91.145 35.8888H92.8882C92.8882 35.3334 92.8184 34.9168 92.7836 34.535L93.4808 34.4308C93.446 34.9168 93.446 35.5417 93.446 36.2707C93.3762 36.8261 93.4111 37.3815 93.446 37.9022ZM89.0881 35.7847C89.0881 35.1251 88.8092 34.778 88.2514 34.778C87.6587 34.778 87.3449 35.1251 87.2404 35.8194L89.0881 35.7847ZM89.7156 35.7847C89.7156 35.8888 89.7156 36.0277 89.7156 36.2012L87.2404 36.2359C87.2752 36.5831 87.4147 36.8955 87.6587 37.1038C87.9028 37.3468 88.2514 37.4509 88.6349 37.4509C88.9835 37.4509 89.3321 37.4162 89.6808 37.3121L89.611 37.8328C89.367 37.9369 89.0184 37.9716 88.6 37.9716C87.9725 37.9716 87.4844 37.798 87.1706 37.4509C86.8569 37.1038 86.6826 36.6872 86.6826 36.2012C86.6826 35.6805 86.822 35.2293 87.1358 34.8474C87.4495 34.4656 87.833 34.292 88.356 34.292C88.8092 34.292 89.1578 34.4308 89.4019 34.7086C89.5762 34.9863 89.7156 35.3334 89.7156 35.7847ZM85.1834 35.3681C85.1834 35.021 84.9394 34.8474 84.4513 34.8474C84.2073 34.8474 83.9284 34.8474 83.6146 34.8821C83.6495 35.2293 83.6495 35.5764 83.6495 35.8888C83.9632 35.8888 84.2073 35.8888 84.4165 35.8888C84.6605 35.8888 84.8697 35.8194 85.0091 35.7152C85.1137 35.6805 85.1834 35.5417 85.1834 35.3681ZM85.288 36.9302C85.288 36.6872 85.1834 36.5136 84.9394 36.4442C84.8 36.3748 84.5908 36.3748 84.277 36.3748C84.0678 36.3748 83.8238 36.3748 83.6146 36.4095C83.6146 36.8261 83.6146 37.2079 83.6146 37.4856C83.8238 37.5203 84.1027 37.5203 84.4165 37.5203C85.0091 37.4856 85.288 37.2773 85.288 36.9302ZM85.8807 36.8955C85.8807 37.2426 85.7413 37.4856 85.4624 37.6592C85.1834 37.8328 84.7999 37.9369 84.277 37.9369C83.9981 37.9369 83.5798 37.9369 83.0219 37.9022C83.0568 37.5898 83.0568 37.0343 83.0568 36.2359C83.0568 35.507 83.0219 34.9168 82.9173 34.4656H83.3008C83.6495 34.4308 84.033 34.4308 84.3816 34.4308C85.2532 34.4308 85.6715 34.7086 85.6715 35.2293C85.6715 35.6111 85.4972 35.8888 85.1486 36.0277V36.0624C85.6715 36.1318 85.8807 36.4095 85.8807 36.8955ZM82.3944 34.4656L82.3595 34.9863C81.976 34.9515 81.5926 34.9168 81.2091 34.9168C81.2091 35.264 81.2091 35.6805 81.2091 36.2012C81.2091 36.7914 81.2439 37.3121 81.2788 37.8328H80.6164C80.6513 37.3468 80.6513 36.7914 80.6513 36.2012C80.6513 35.6805 80.6513 35.264 80.6164 34.9168C80.2329 34.9168 79.8494 34.9515 79.431 34.9863L79.4659 34.4656H82.3944ZM79.0476 37.3468L79.0127 37.8328C78.8035 37.9369 78.5595 38.0063 78.2108 38.0063C77.5833 38.0063 77.0952 37.8328 76.7815 37.4856C76.4677 37.1385 76.2934 36.7219 76.2934 36.2359C76.2934 35.7152 76.4677 35.264 76.8163 34.9168C77.165 34.535 77.6182 34.3614 78.2108 34.3614C78.4897 34.3614 78.7338 34.3961 78.9081 34.4308L78.8035 34.9863C78.5595 34.8821 78.2806 34.8474 78.0365 34.8474C77.6879 34.8474 77.409 34.9515 77.2347 35.1945C77.0255 35.4375 76.9209 35.7152 76.9209 36.0971C76.9209 36.4789 77.0255 36.8261 77.2696 37.0691C77.5136 37.3121 77.8622 37.4509 78.2806 37.4509C78.4898 37.4856 78.7338 37.4162 79.0476 37.3468ZM74.5154 37.4162C74.4805 36.9302 74.4805 36.5484 74.4805 36.2359C74.4805 35.75 74.4805 35.2987 74.4456 34.9168H73.8181C73.6787 35.1945 73.5043 35.5417 73.2952 35.9929C73.086 36.4442 72.9117 36.9302 72.8071 37.4162H74.5154ZM75.7356 37.4162C75.7356 37.555 75.7007 37.8328 75.6659 38.284C75.5961 38.7353 75.5961 39.1171 75.5961 39.3601H75.1778C75.1778 39.0477 75.1778 38.5617 75.1778 37.8328C74.864 37.8328 74.3759 37.798 73.7832 37.798C73.3998 37.798 72.9814 37.798 72.563 37.8328C72.4585 38.527 72.3887 39.0477 72.3887 39.3601H71.9704C71.9704 39.1519 71.9704 38.8394 71.9704 38.4576C71.9704 38.0757 71.9704 37.7286 71.9704 37.4162H72.319C72.563 36.5484 72.9814 35.5417 73.5741 34.4656H74.62L75.108 34.3961C75.0732 34.8821 75.0732 35.507 75.0732 36.2359C75.0732 36.5136 75.108 36.9302 75.1429 37.4162H75.7356ZM70.785 36.2012C70.785 35.8194 70.6804 35.507 70.5061 35.1945C70.3318 34.9168 70.0529 34.7433 69.7043 34.7433C69.3556 34.7433 69.0767 34.8821 68.9024 35.1598C68.7281 35.4375 68.6235 35.75 68.6235 36.1318C68.6235 36.5136 68.7281 36.8261 68.9024 37.1385C69.0767 37.4162 69.3556 37.5898 69.7043 37.5898C70.0529 37.5898 70.3318 37.4509 70.5061 37.1732C70.7153 36.8955 70.785 36.5484 70.785 36.2012ZM71.4126 36.0624C71.4126 36.6872 71.2382 37.1732 70.8896 37.4856C70.541 37.8328 70.1226 38.0063 69.6346 38.0063C69.1813 38.0063 68.7978 37.8675 68.4841 37.555C68.1703 37.2426 67.996 36.8261 67.996 36.2707C67.996 35.6458 68.1703 35.1598 68.5189 34.8127C68.8676 34.4656 69.2859 34.292 69.774 34.292C70.2272 34.292 70.6107 34.4308 70.9245 34.7433C71.2731 35.0904 71.4126 35.507 71.4126 36.0624ZM66.5317 35.3681C66.5317 35.021 66.2877 34.8474 65.7996 34.8474C65.5556 34.8474 65.2767 34.8474 64.9629 34.8821C64.9978 35.2293 64.9978 35.5764 64.9978 35.8888C65.3115 35.8888 65.5556 35.8888 65.7648 35.8888C66.0088 35.8888 66.218 35.8194 66.3574 35.7152C66.462 35.6805 66.5317 35.5417 66.5317 35.3681ZM66.6712 36.9302C66.6712 36.6872 66.5666 36.5136 66.3226 36.4442C66.1831 36.3748 65.9739 36.3748 65.6602 36.3748C65.451 36.3748 65.207 36.3748 64.9978 36.4095C64.9978 36.8261 64.9978 37.2079 64.9978 37.4856C65.207 37.5203 65.4859 37.5203 65.7996 37.5203C66.3923 37.4856 66.6712 37.2773 66.6712 36.9302ZM67.2639 36.8955C67.2639 37.2426 67.1244 37.4856 66.8455 37.6592C66.5666 37.8328 66.1831 37.9369 65.6602 37.9369C65.3813 37.9369 64.9629 37.9369 64.4051 37.9022C64.44 37.5898 64.44 37.0343 64.44 36.2359C64.44 35.507 64.4051 34.9168 64.3005 34.4656H64.684C65.0326 34.4308 65.4161 34.4308 65.7648 34.4308C66.6363 34.4308 67.0547 34.7086 67.0547 35.2293C67.0547 35.6111 66.8804 35.8888 66.5317 36.0277V36.0624C67.0198 36.1318 67.2639 36.4095 67.2639 36.8955ZM63.5684 36.8608C63.5684 37.2426 63.4289 37.5203 63.1152 37.6939C62.8014 37.8675 62.4876 37.9716 62.0693 37.9716C61.6509 37.9716 61.2326 37.9369 60.9188 37.8328L60.9885 37.3468C61.2674 37.4509 61.6509 37.5203 62.1041 37.5203C62.7317 37.5203 63.0106 37.3121 63.0106 36.9302C63.0106 36.5136 62.662 36.3401 61.9298 36.3401C61.7207 36.3401 61.5115 36.3401 61.3023 36.3748L61.372 35.8888C61.5812 35.8888 61.7555 35.9235 61.9647 35.9235C62.6271 35.9235 62.9409 35.7152 62.9409 35.3334C62.9409 35.021 62.662 34.8474 62.0693 34.8474C61.6858 34.8474 61.3372 34.8821 61.0583 34.9863L61.128 34.5003C61.4418 34.3961 61.7904 34.3614 62.1739 34.3614C63.0454 34.3614 63.4987 34.6391 63.4987 35.1598C63.4987 35.5417 63.3244 35.8194 62.9409 35.9929V36.0277C63.1152 36.0624 63.2546 36.1318 63.3941 36.2707C63.4987 36.4095 63.5684 36.6178 63.5684 36.8608ZM60.2215 37.9022H59.5592C59.594 37.4856 59.6289 36.9302 59.6289 36.2707C59.6289 36.0624 59.6289 35.7847 59.6637 35.4028H59.6289C59.594 35.5764 59.2454 35.9929 58.6527 36.7219C58.06 37.3815 57.7811 37.798 57.7811 37.9369H57.2582C57.2931 37.4509 57.2931 36.8955 57.2931 36.3054C57.2931 35.6111 57.2582 35.021 57.1536 34.5697L57.8857 34.4656C57.8509 34.9168 57.8509 35.4722 57.8509 36.1665C57.8509 36.4095 57.8509 36.7219 57.816 37.1038H57.8509C57.9206 36.9649 58.2344 36.5136 58.827 35.7847C59.3848 35.1251 59.6637 34.7086 59.6637 34.5697L60.1867 34.4656C60.1518 34.9515 60.1518 35.5764 60.1518 36.3054C60.1518 36.8261 60.1867 37.3815 60.2215 37.9022ZM55.794 36.2012C55.794 35.8194 55.6894 35.507 55.515 35.1945C55.3407 34.9168 55.0618 34.7433 54.7132 34.7433C54.3646 34.7433 54.0857 34.8821 53.9113 35.1598C53.737 35.4375 53.6324 35.75 53.6324 36.1318C53.6324 36.5136 53.737 36.8261 53.9113 37.1385C54.0857 37.4162 54.3646 37.5898 54.7132 37.5898C55.0618 37.5898 55.3407 37.4509 55.515 37.1732C55.6894 36.8955 55.794 36.5484 55.794 36.2012ZM56.4215 36.0624C56.4215 36.6872 56.2472 37.1732 55.8985 37.4856C55.5499 37.8328 55.1316 38.0063 54.6435 38.0063C54.1903 38.0063 53.8068 37.8675 53.493 37.555C53.1792 37.2426 53.0049 36.8261 53.0049 36.2707C53.0049 35.6458 53.1792 35.1598 53.5279 34.8127C53.8765 34.4656 54.2948 34.292 54.7829 34.292C55.2361 34.292 55.6196 34.4308 55.9334 34.7433C56.2472 35.0904 56.4215 35.507 56.4215 36.0624ZM51.6104 36.1318C51.6104 35.7847 51.5058 35.4722 51.3315 35.2293C51.1572 34.9863 50.8783 34.8474 50.5296 34.8474C50.1113 34.8474 49.7975 34.9863 49.5883 35.2293C49.6232 36.0277 49.6581 36.7219 49.6581 37.3121C49.8672 37.4856 50.1113 37.555 50.4251 37.555C50.8085 37.555 51.1223 37.4162 51.3315 37.1385C51.5407 36.8608 51.6104 36.5136 51.6104 36.1318ZM52.2728 36.0277C52.2728 36.5484 52.1333 36.9996 51.8196 37.3815C51.5058 37.7633 51.1223 37.9716 50.5645 37.9716C50.1113 37.9716 49.8324 37.9022 49.6929 37.7286H49.6581C49.6581 38.3882 49.6581 38.9783 49.6929 39.499H48.9957C49.0654 38.8742 49.0654 38.0757 49.0654 37.1385C49.0654 35.9929 48.9957 35.0904 48.8911 34.4656L49.5186 34.3614L49.5883 34.7086H49.6232C49.8672 34.4308 50.2507 34.292 50.7737 34.292C51.2269 34.292 51.6104 34.4656 51.8544 34.778C52.1333 35.1945 52.2728 35.5764 52.2728 36.0277ZM48.0195 37.9022H47.392C47.4268 37.4162 47.4268 36.8608 47.4268 36.2707C47.4268 35.8888 47.4268 35.4722 47.4268 34.9515H45.858C45.858 35.3681 45.858 35.7847 45.858 36.2707C45.858 36.8608 45.8929 37.3815 45.9277 37.9022H45.3002C45.3351 37.4162 45.3699 36.8608 45.3699 36.2707C45.3699 35.5764 45.3351 34.9863 45.2305 34.535L45.9277 34.5003H47.5663L48.0544 34.4308C48.0195 34.9168 48.0195 35.5417 48.0195 36.2707C47.9846 36.8261 47.9846 37.3815 48.0195 37.9022Z" fill="#21272A"/>
</svg>
