<svg width="16" height="16" viewBox="0 0 16 16" fill="none" xmlns="http://www.w3.org/2000/svg">
<path d="M8.00001 0C12.4184 0 16 3.5816 16 7.99999C16 12.4184 12.4184 16 8.00001 16C6.58621 16.0024 5.19727 15.6283 3.97601 14.916L0.00321236 16L1.08481 12.0256C0.371979 10.8039 -0.0024653 9.4144 1.22149e-05 7.99999C1.22149e-05 3.5816 3.58161 0 8.00001 0ZM5.27361 4.24L5.11361 4.2464C5.01016 4.25353 4.90908 4.28069 4.81601 4.3264C4.72927 4.37561 4.65006 4.43703 4.58081 4.5088C4.48481 4.5992 4.43041 4.6776 4.37201 4.7536C4.07611 5.13832 3.91679 5.61065 3.91921 6.09599C3.92081 6.48799 4.02321 6.86959 4.18321 7.22639C4.51041 7.94799 5.04881 8.71199 5.75921 9.42C5.93041 9.5904 6.09841 9.7616 6.27921 9.9208C7.16196 10.698 8.21383 11.2584 9.3512 11.5576L9.8056 11.6272C9.9536 11.6352 10.1016 11.624 10.2504 11.6168C10.4834 11.6045 10.7108 11.5414 10.9168 11.432C11.0215 11.3779 11.1237 11.3191 11.2232 11.256C11.2232 11.256 11.2571 11.2331 11.3232 11.184C11.4312 11.104 11.4976 11.0472 11.5872 10.9536C11.6544 10.8843 11.7104 10.8037 11.7552 10.712C11.8176 10.5816 11.88 10.3328 11.9056 10.1256C11.9248 9.9672 11.9192 9.8808 11.9168 9.8272C11.9136 9.7416 11.8424 9.6528 11.7648 9.6152L11.2992 9.4064C11.2992 9.4064 10.6032 9.1032 10.1776 8.9096C10.1331 8.89022 10.0853 8.87908 10.0368 8.87679C9.98204 8.87107 9.92676 8.87717 9.87458 8.89467C9.8224 8.91227 9.77458 8.9408 9.7344 8.9784C9.7304 8.9768 9.6768 9.0224 9.0984 9.7232C9.06524 9.76782 9.01947 9.80151 8.96702 9.82C8.91458 9.83858 8.85786 9.84107 8.80401 9.8272C8.75187 9.81333 8.7008 9.79564 8.65121 9.7744C8.55201 9.7328 8.51761 9.7168 8.44961 9.688C7.9903 9.48791 7.56516 9.21716 7.18961 8.88559C7.08881 8.79759 6.99521 8.70159 6.89921 8.60879C6.5845 8.30736 6.3102 7.96638 6.08321 7.59439L6.03601 7.51839C6.00261 7.46703 5.97524 7.41201 5.95441 7.35439C5.92401 7.23679 6.00321 7.14239 6.00321 7.14239C6.00321 7.14239 6.19761 6.92959 6.28801 6.81439C6.37601 6.70239 6.45041 6.59359 6.49841 6.51599C6.59281 6.36399 6.62241 6.20799 6.57281 6.08719C6.34881 5.54 6.11734 4.99573 5.87841 4.4544C5.83121 4.3472 5.69121 4.2704 5.56401 4.2552C5.52081 4.24987 5.47761 4.2456 5.43441 4.2424C5.327 4.23624 5.21928 4.23731 5.11201 4.2456L5.27361 4.24Z" fill="#7A5946"/>
</svg>
